<?xml version="1.0" encoding="UTF-8" standalone="no" ?>
<!DOCTYPE svg PUBLIC "-//W3C//DTD SVG 1.1//EN" "http://www.w3.org/Graphics/SVG/1.1/DTD/svg11.dtd">
<svg xmlns="http://www.w3.org/2000/svg" xmlns:xlink="http://www.w3.org/1999/xlink" version="1.1" width="1080" height="1080" viewBox="0 0 1080 1080" xml:space="preserve">
<desc>Created with Fabric.js 5.2.4</desc>
<defs>
</defs>
<g transform="matrix(1 0 0 1 540 540)" id="5a5c20da-df7a-44c9-afc1-e22e34e25a13"  >
<rect style="stroke: none; stroke-width: 1; stroke-dasharray: none; stroke-linecap: butt; stroke-dashoffset: 0; stroke-linejoin: miter; stroke-miterlimit: 4; fill: rgb(255,255,255); fill-rule: nonzero; opacity: 1; visibility: hidden;" vector-effect="non-scaling-stroke"  x="-540" y="-540" rx="0" ry="0" width="1080" height="1080" />
</g>
<g transform="matrix(1 0 0 1 540 540)" id="bd9295e4-6b02-4d32-96ec-ffdb770a61e8"  >
</g>
<g transform="matrix(0 0 0 0 0 0)"  >
<g style=""   >
</g>
</g>
<g transform="matrix(0 0 0 0 0 0)"  >
<g style=""   >
</g>
</g>
<g transform="matrix(2.92 0 0 2.92 540 540)"  >
<g style=""   >
		<g transform="matrix(3.13 0 0 3.13 -135 0)" id="SvgjsG1446"  >
<path style="stroke: none; stroke-width: 1; stroke-dasharray: none; stroke-linecap: butt; stroke-dashoffset: 0; stroke-linejoin: miter; stroke-miterlimit: 4; fill: rgb(205,46,37); fill-rule: nonzero; opacity: 1;" vector-effect="non-scaling-stroke"  transform=" translate(-16, -11.5)" d="M 17.063 0 L 17.032 0.156 L 12.032 22.156 L 11.844 23 L 14.937999999999999 23 L 14.969 22.844 L 19.969 0.8440000000000012 L 20.157 1.2212453270876722e-15 L 17.063 1.2212453270876722e-15 z M 10 3 L 9.594 3.313 L 0.5939999999999994 10.313 L -5.551115123125783e-16 10.782 L -5.551115123125783e-16 12.22 L 0.5939999999999994 12.689 L 9.594 19.689 L 10 20.002 L 10 16.221 L 3.9370000000000003 11.501999999999999 L 10 6.782999999999999 L 10 3.0019999999999984 z M 22 3 L 22 6.781000000000001 L 28.063 11.5 L 22 16.219 L 22 20 L 22.406 19.687 L 31.406 12.687000000000001 L 32 12.218000000000002 L 32 10.780000000000001 L 31.406 10.311000000000002 L 22.406 3.3110000000000017 L 22 2.9980000000000016 z" stroke-linecap="round" />
</g>
		<g transform="matrix(1.09 0 0 1.09 60 0.35)" id="SvgjsG1447"  >
<path style="stroke: none; stroke-width: 1; stroke-dasharray: none; stroke-linecap: butt; stroke-dashoffset: 0; stroke-linejoin: miter; stroke-miterlimit: 4; fill: rgb(42,36,56); fill-rule: nonzero; opacity: 1;" vector-effect="non-scaling-stroke"  transform=" translate(-118.87, -20)" d="M 36.641 38.5156 L 23.906999999999996 22.2656 L 19.453899999999997 27.1094 L 28.750799999999998 38.5154 L 36.6414 38.5154 z M 27.969 1.4059999999999988 L 10.235 19.765 L 10.235 1.4059999999999988 L 3.8286999999999995 1.4059999999999988 L 3.8286999999999995 38.515 L 10.235 38.515 L 10.235 29.765 L 36.563 1.4059999999999988 L 27.9692 1.4059999999999988 z M 70.703 38.5937 L 77.7343 38.5937 L 64.14030000000001 1.3277 L 57.03090000000001 1.3277 L 64.92150000000001 23.5937 z M 41.9531 38.5937 L 48.8281 38.5937 L 56.9531 18.749699999999997 L 53.5937 9.843399999999997 z M 104.922 1.4059999999999988 C 102.0574 1.4059999999999988 99.4011 1.8745999999999987 96.9532 2.8120999999999987 C 94.5573 3.7495999999999987 92.47399999999999 5.0516999999999985 90.70309999999999 6.718399999999999 C 88.98429999999999 8.280899999999999 87.63019999999999 10.259999999999998 86.64059999999999 12.655899999999999 C 85.80724 14.687199999999999 85.3385 16.9007 85.23429999999999 19.296499999999998 L 85.23429999999999 21.640299999999996 L 92.10929999999999 21.640299999999996 L 92.10929999999999 19.296499999999995 C 92.21343999999999 17.525599999999994 92.49992999999999 16.093399999999995 92.96867999999999 14.999599999999994 C 93.59367999999999 13.489199999999993 94.45307999999999 12.135099999999994 95.54678 10.937199999999994 C 96.84888 9.739299999999993 98.20308 8.853899999999994 99.60928 8.280999999999993 C 101.22388 7.6559999999999935 102.99477999999999 7.3434999999999935 104.92188 7.3434999999999935 L 114.76568 7.3434999999999935 L 114.76568 1.4059999999999935 L 104.92188 1.4059999999999935 z M 107.89099999999999 18.984 L 107.89107629399999 20.468300000000003 L 107.96920129399999 20.468300000000003 C 107.86506129399999 22.134900000000002 107.55256129399999 23.671400000000002 107.03170129399999 25.077700000000004 C 106.35459129399999 26.692300000000003 105.49520129399998 28.020400000000002 104.45360129399998 29.062100000000004 C 103.30770129399998 30.208000000000006 101.95360129399998 31.093400000000003 100.39110129399998 31.718400000000003 C 98.77650129399998 32.3434 97.00560129399999 32.6559 95.07850129399998 32.6559 L 85.23470129399998 32.6559 L 85.23470129399998 38.5934 L 95.07850129399998 38.5934 C 97.94310129399997 38.5934 100.59940129399997 38.12465 103.04730129399998 37.1871 C 105.44320129399998 36.2496 107.52650129399998 34.9475 109.29740129399998 33.2808 C 111.12030129399999 31.4579 112.47440129399999 29.4788 113.35980129399998 27.3434 C 114.29730129399998 25.259999999999998 114.76610129399998 22.9684 114.76610129399998 20.4684 L 114.76610129399998 18.983999999999998 L 107.89110129399998 18.983999999999998 z M 131.094 16.875 L 131.094 1.3279999999999994 L 124.5315 1.3279999999999994 L 124.5315 38.672 L 131.094 38.672 L 131.094 16.874999999999996 z M 148.984 1.328000000000003 L 148.984 16.875000000000004 L 137.578 16.875000000000004 L 137.578 22.9688 L 148.984 22.9688 L 148.984 38.671800000000005 L 155.4684 38.671800000000005 L 155.4684 1.3278000000000034 L 148.984 1.3278000000000034 z M 183.281 16.875 L 183.281 1.3279999999999994 L 176.7185 1.3279999999999994 L 176.7185 38.672 L 183.281 38.672 L 183.281 16.874999999999996 z M 206.0938 1.4059999999999988 L 233.90679999999998 1.4059999999999988 L 233.90679999999998 7.343499999999999 L 206.0938 7.343499999999999 L 206.0938 1.4059999999999988 z M 206.0938 16.875 L 212.0313 16.875 L 212.0313 38.594 L 206.0938 38.594 L 206.0938 16.875 z M 206.0938 16.875 L 231.1718 16.875 L 231.1718 22.7344 L 206.0938 22.7344 L 206.0938 16.875 z" stroke-linecap="round" />
</g>
</g>
</g>
</svg>